<svg width="195" height="124" viewBox="0 0 195 124" fill="none" xmlns="http://www.w3.org/2000/svg">
<path d="M3 16C4.65685 16 6 14.6569 6 13C6 11.3431 4.65685 10 3 10C1.34315 10 0 11.3431 0 13C0 14.6569 1.34315 16 3 16Z" fill="#BDC6D2"/>
<path d="M3 37.5C4.65685 37.5 6 36.1569 6 34.5C6 32.8431 4.65685 31.5 3 31.5C1.34315 31.5 0 32.8431 0 34.5C0 36.1569 1.34315 37.5 3 37.5Z" fill="#BDC6D2"/>
<path d="M3 59C4.65685 59 6 57.6569 6 56C6 54.3431 4.65685 53 3 53C1.34315 53 0 54.3431 0 56C0 57.6569 1.34315 59 3 59Z" fill="#BDC6D2"/>
<path d="M3 80.5C4.65685 80.5 6 79.1569 6 77.5C6 75.8431 4.65685 74.5 3 74.5C1.34315 74.5 0 75.8431 0 77.5C0 79.1569 1.34315 80.5 3 80.5Z" fill="#BDC6D2"/>
<path d="M3 102C4.65685 102 6 100.657 6 99C6 97.3431 4.65685 96 3 96C1.34315 96 0 97.3431 0 99C0 100.657 1.34315 102 3 102Z" fill="#BDC6D2"/>
<path d="M3 123.5C4.65685 123.5 6 122.157 6 120.5C6 118.843 4.65685 117.5 3 117.5C1.34315 117.5 0 118.843 0 120.5C0 122.157 1.34315 123.5 3 123.5Z" fill="#BDC6D2"/>
<path d="M24 6C25.6569 6 27 4.65685 27 3C27 1.34315 25.6569 0 24 0C22.3431 0 21 1.34315 21 3C21 4.65685 22.3431 6 24 6Z" fill="#BDC6D2"/>
<path d="M24 27.5C25.6569 27.5 27 26.1569 27 24.5C27 22.8431 25.6569 21.5 24 21.5C22.3431 21.5 21 22.8431 21 24.5C21 26.1569 22.3431 27.5 24 27.5Z" fill="#BDC6D2"/>
<path d="M24 49C25.6569 49 27 47.6569 27 46C27 44.3431 25.6569 43 24 43C22.3431 43 21 44.3431 21 46C21 47.6569 22.3431 49 24 49Z" fill="#BDC6D2"/>
<path d="M24 70.5C25.6569 70.5 27 69.1569 27 67.5C27 65.8431 25.6569 64.5 24 64.5C22.3431 64.5 21 65.8431 21 67.5C21 69.1569 22.3431 70.5 24 70.5Z" fill="#BDC6D2"/>
<path d="M24 92C25.6569 92 27 90.6569 27 89C27 87.3431 25.6569 86 24 86C22.3431 86 21 87.3431 21 89C21 90.6569 22.3431 92 24 92Z" fill="#BDC6D2"/>
<path d="M24 113.5C25.6569 113.5 27 112.157 27 110.5C27 108.843 25.6569 107.5 24 107.5C22.3431 107.5 21 108.843 21 110.5C21 112.157 22.3431 113.5 24 113.5Z" fill="#BDC6D2"/>
<path d="M45 16C46.6569 16 48 14.6569 48 13C48 11.3431 46.6569 10 45 10C43.3431 10 42 11.3431 42 13C42 14.6569 43.3431 16 45 16Z" fill="#BDC6D2"/>
<path d="M45 37.5C46.6569 37.5 48 36.1569 48 34.5C48 32.8431 46.6569 31.5 45 31.5C43.3431 31.5 42 32.8431 42 34.5C42 36.1569 43.3431 37.5 45 37.5Z" fill="#BDC6D2"/>
<path d="M45 59C46.6569 59 48 57.6569 48 56C48 54.3431 46.6569 53 45 53C43.3431 53 42 54.3431 42 56C42 57.6569 43.3431 59 45 59Z" fill="#BDC6D2"/>
<path d="M45 80.5C46.6569 80.5 48 79.1569 48 77.5C48 75.8431 46.6569 74.5 45 74.5C43.3431 74.5 42 75.8431 42 77.5C42 79.1569 43.3431 80.5 45 80.5Z" fill="#BDC6D2"/>
<path d="M45 102C46.6569 102 48 100.657 48 99C48 97.3431 46.6569 96 45 96C43.3431 96 42 97.3431 42 99C42 100.657 43.3431 102 45 102Z" fill="#BDC6D2"/>
<path d="M45 123.5C46.6569 123.5 48 122.157 48 120.5C48 118.843 46.6569 117.5 45 117.5C43.3431 117.5 42 118.843 42 120.5C42 122.157 43.3431 123.5 45 123.5Z" fill="#BDC6D2"/>
<path d="M66 6C67.6569 6 69 4.65685 69 3C69 1.34315 67.6569 0 66 0C64.3431 0 63 1.34315 63 3C63 4.65685 64.3431 6 66 6Z" fill="#BDC6D2"/>
<path d="M66 27.5C67.6569 27.5 69 26.1569 69 24.5C69 22.8431 67.6569 21.5 66 21.5C64.3431 21.5 63 22.8431 63 24.5C63 26.1569 64.3431 27.5 66 27.5Z" fill="#BDC6D2"/>
<path d="M66 49C67.6569 49 69 47.6569 69 46C69 44.3431 67.6569 43 66 43C64.3431 43 63 44.3431 63 46C63 47.6569 64.3431 49 66 49Z" fill="#BDC6D2"/>
<path d="M66 70.5C67.6569 70.5 69 69.1569 69 67.5C69 65.8431 67.6569 64.5 66 64.5C64.3431 64.5 63 65.8431 63 67.5C63 69.1569 64.3431 70.5 66 70.5Z" fill="#BDC6D2"/>
<path d="M66 92C67.6569 92 69 90.6569 69 89C69 87.3431 67.6569 86 66 86C64.3431 86 63 87.3431 63 89C63 90.6569 64.3431 92 66 92Z" fill="#BDC6D2"/>
<path d="M66 113.5C67.6569 113.5 69 112.157 69 110.5C69 108.843 67.6569 107.5 66 107.5C64.3431 107.5 63 108.843 63 110.5C63 112.157 64.3431 113.5 66 113.5Z" fill="#BDC6D2"/>
<path d="M87 16C88.6569 16 90 14.6569 90 13C90 11.3431 88.6569 10 87 10C85.3431 10 84 11.3431 84 13C84 14.6569 85.3431 16 87 16Z" fill="#BDC6D2"/>
<path d="M87 37.5C88.6569 37.5 90 36.1569 90 34.5C90 32.8431 88.6569 31.5 87 31.5C85.3431 31.5 84 32.8431 84 34.5C84 36.1569 85.3431 37.5 87 37.5Z" fill="#BDC6D2"/>
<path d="M87 59C88.6569 59 90 57.6569 90 56C90 54.3431 88.6569 53 87 53C85.3431 53 84 54.3431 84 56C84 57.6569 85.3431 59 87 59Z" fill="#BDC6D2"/>
<path d="M87 80.5C88.6569 80.5 90 79.1569 90 77.5C90 75.8431 88.6569 74.5 87 74.5C85.3431 74.5 84 75.8431 84 77.5C84 79.1569 85.3431 80.5 87 80.5Z" fill="#BDC6D2"/>
<path d="M87 102C88.6569 102 90 100.657 90 99C90 97.3431 88.6569 96 87 96C85.3431 96 84 97.3431 84 99C84 100.657 85.3431 102 87 102Z" fill="#BDC6D2"/>
<path d="M87 123.5C88.6569 123.5 90 122.157 90 120.5C90 118.843 88.6569 117.5 87 117.5C85.3431 117.5 84 118.843 84 120.5C84 122.157 85.3431 123.5 87 123.5Z" fill="#BDC6D2"/>
<path d="M108 6C109.657 6 111 4.65685 111 3C111 1.34315 109.657 0 108 0C106.343 0 105 1.34315 105 3C105 4.65685 106.343 6 108 6Z" fill="#BDC6D2"/>
<path d="M108 27.5C109.657 27.5 111 26.1569 111 24.5C111 22.8431 109.657 21.5 108 21.5C106.343 21.5 105 22.8431 105 24.5C105 26.1569 106.343 27.5 108 27.5Z" fill="#BDC6D2"/>
<path d="M108 49C109.657 49 111 47.6569 111 46C111 44.3431 109.657 43 108 43C106.343 43 105 44.3431 105 46C105 47.6569 106.343 49 108 49Z" fill="#BDC6D2"/>
<path d="M108 70.5C109.657 70.5 111 69.1569 111 67.5C111 65.8431 109.657 64.5 108 64.5C106.343 64.5 105 65.8431 105 67.5C105 69.1569 106.343 70.5 108 70.5Z" fill="#BDC6D2"/>
<path d="M108 92C109.657 92 111 90.6569 111 89C111 87.3431 109.657 86 108 86C106.343 86 105 87.3431 105 89C105 90.6569 106.343 92 108 92Z" fill="#BDC6D2"/>
<path d="M108 113.5C109.657 113.5 111 112.157 111 110.5C111 108.843 109.657 107.5 108 107.5C106.343 107.5 105 108.843 105 110.5C105 112.157 106.343 113.5 108 113.5Z" fill="#BDC6D2"/>
<path d="M129 16C130.657 16 132 14.6569 132 13C132 11.3431 130.657 10 129 10C127.343 10 126 11.3431 126 13C126 14.6569 127.343 16 129 16Z" fill="#BDC6D2"/>
<path d="M129 37.5C130.657 37.5 132 36.1569 132 34.5C132 32.8431 130.657 31.5 129 31.5C127.343 31.5 126 32.8431 126 34.5C126 36.1569 127.343 37.5 129 37.5Z" fill="#BDC6D2"/>
<path d="M129 59C130.657 59 132 57.6569 132 56C132 54.3431 130.657 53 129 53C127.343 53 126 54.3431 126 56C126 57.6569 127.343 59 129 59Z" fill="#BDC6D2"/>
<path d="M129 80.5C130.657 80.5 132 79.1569 132 77.5C132 75.8431 130.657 74.5 129 74.5C127.343 74.5 126 75.8431 126 77.5C126 79.1569 127.343 80.5 129 80.5Z" fill="#BDC6D2"/>
<path d="M129 102C130.657 102 132 100.657 132 99C132 97.3431 130.657 96 129 96C127.343 96 126 97.3431 126 99C126 100.657 127.343 102 129 102Z" fill="#BDC6D2"/>
<path d="M129 123.5C130.657 123.5 132 122.157 132 120.5C132 118.843 130.657 117.5 129 117.5C127.343 117.5 126 118.843 126 120.5C126 122.157 127.343 123.5 129 123.5Z" fill="#BDC6D2"/>
<path d="M150 6C151.657 6 153 4.65685 153 3C153 1.34315 151.657 0 150 0C148.343 0 147 1.34315 147 3C147 4.65685 148.343 6 150 6Z" fill="#BDC6D2"/>
<path d="M150 27.5C151.657 27.5 153 26.1569 153 24.5C153 22.8431 151.657 21.5 150 21.5C148.343 21.5 147 22.8431 147 24.5C147 26.1569 148.343 27.5 150 27.5Z" fill="#BDC6D2"/>
<path d="M150 49C151.657 49 153 47.6569 153 46C153 44.3431 151.657 43 150 43C148.343 43 147 44.3431 147 46C147 47.6569 148.343 49 150 49Z" fill="#BDC6D2"/>
<path d="M150 70.5C151.657 70.5 153 69.1569 153 67.5C153 65.8431 151.657 64.5 150 64.5C148.343 64.5 147 65.8431 147 67.5C147 69.1569 148.343 70.5 150 70.5Z" fill="#BDC6D2"/>
<path d="M150 92C151.657 92 153 90.6569 153 89C153 87.3431 151.657 86 150 86C148.343 86 147 87.3431 147 89C147 90.6569 148.343 92 150 92Z" fill="#BDC6D2"/>
<path d="M150 113.5C151.657 113.5 153 112.157 153 110.5C153 108.843 151.657 107.5 150 107.5C148.343 107.5 147 108.843 147 110.5C147 112.157 148.343 113.5 150 113.5Z" fill="#BDC6D2"/>
<path d="M171 16C172.657 16 174 14.6569 174 13C174 11.3431 172.657 10 171 10C169.343 10 168 11.3431 168 13C168 14.6569 169.343 16 171 16Z" fill="#BDC6D2"/>
<path d="M171 37.5C172.657 37.5 174 36.1569 174 34.5C174 32.8431 172.657 31.5 171 31.5C169.343 31.5 168 32.8431 168 34.5C168 36.1569 169.343 37.5 171 37.5Z" fill="#BDC6D2"/>
<path d="M171 59C172.657 59 174 57.6569 174 56C174 54.3431 172.657 53 171 53C169.343 53 168 54.3431 168 56C168 57.6569 169.343 59 171 59Z" fill="#BDC6D2"/>
<path d="M171 80.5C172.657 80.5 174 79.1569 174 77.5C174 75.8431 172.657 74.5 171 74.5C169.343 74.5 168 75.8431 168 77.5C168 79.1569 169.343 80.5 171 80.5Z" fill="#BDC6D2"/>
<path d="M171 102C172.657 102 174 100.657 174 99C174 97.3431 172.657 96 171 96C169.343 96 168 97.3431 168 99C168 100.657 169.343 102 171 102Z" fill="#BDC6D2"/>
<path d="M171 123.5C172.657 123.5 174 122.157 174 120.5C174 118.843 172.657 117.5 171 117.5C169.343 117.5 168 118.843 168 120.5C168 122.157 169.343 123.5 171 123.5Z" fill="#BDC6D2"/>
<path d="M192 6C193.657 6 195 4.65685 195 3C195 1.34315 193.657 0 192 0C190.343 0 189 1.34315 189 3C189 4.65685 190.343 6 192 6Z" fill="#BDC6D2"/>
<path d="M192 27.5C193.657 27.5 195 26.1569 195 24.5C195 22.8431 193.657 21.5 192 21.5C190.343 21.5 189 22.8431 189 24.5C189 26.1569 190.343 27.5 192 27.5Z" fill="#BDC6D2"/>
<path d="M192 49C193.657 49 195 47.6569 195 46C195 44.3431 193.657 43 192 43C190.343 43 189 44.3431 189 46C189 47.6569 190.343 49 192 49Z" fill="#BDC6D2"/>
<path d="M192 70.5C193.657 70.5 195 69.1569 195 67.5C195 65.8431 193.657 64.5 192 64.5C190.343 64.5 189 65.8431 189 67.5C189 69.1569 190.343 70.5 192 70.5Z" fill="#BDC6D2"/>
<path d="M192 92C193.657 92 195 90.6569 195 89C195 87.3431 193.657 86 192 86C190.343 86 189 87.3431 189 89C189 90.6569 190.343 92 192 92Z" fill="#BDC6D2"/>
<path d="M192 113.5C193.657 113.5 195 112.157 195 110.5C195 108.843 193.657 107.5 192 107.5C190.343 107.5 189 108.843 189 110.5C189 112.157 190.343 113.5 192 113.5Z" fill="#BDC6D2"/>
</svg>
