<svg width="30" height="11" viewBox="0 0 30 11" fill="none" xmlns="http://www.w3.org/2000/svg">
<path d="M20.8984 9.33559C20.741 8.73162 20.5187 8.0426 20.6569 7.96841C21.5512 7.47084 22.4914 7.06086 23.4645 6.74417C15.8264 6.8776 8.19543 7.05751 0.614263 7.23167C0.468483 7.25742 0.276023 4.74192 0.172999 4.73371C8.50504 4.52645 16.8945 4.35678 25.2338 4.19599C24.3832 3.66469 23.493 3.19116 22.6436 2.66066C22.4728 2.54457 22.4522 1.57716 22.4188 1.38804C22.3854 1.19892 22.3647 0.230525 22.193 0.115596L27.2692 3.15487C27.7215 3.41524 28.1762 3.72394 28.6266 3.98466C28.9124 4.17693 29.3357 4.29616 29.501 4.657C29.6931 5.31748 29.8131 5.99682 29.859 6.68314L29.9421 7.15397C29.9338 7.10669 29.8855 7.11522 29.8765 7.064C29.8363 7.41137 29.6013 7.50163 29.0792 7.69137C28.1836 8.04358 27.2631 8.25495 26.3509 8.51359C24.7086 8.88074 23.115 9.43941 21.6029 10.1781C21.6041 10.1845 21.6041 10.191 21.6028 10.1974C21.6014 10.2037 21.5988 10.2097 21.5951 10.215C21.5914 10.2203 21.5867 10.2248 21.5812 10.2282C21.5757 10.2317 21.5695 10.2339 21.5631 10.2349C21.4247 10.3081 21.2387 10.3938 21.0955 10.4628L20.8984 9.33559Z" fill="#007189"/>
</svg>
